<svg xmlns="http://www.w3.org/2000/svg" viewBox="0 0 240 160">
  <g stroke="#633806" stroke-width="1.5" fill="none">
    <rect x="40" y="24" width="160" height="88" rx="4" fill="#EBD9A8"/>
    <g stroke="#c9a66b"><line x1="80" y1="24" x2="80" y2="112"/><line x1="120" y1="24" x2="120" y2="112"/><line x1="160" y1="24" x2="160" y2="112"/><line x1="40" y1="68" x2="200" y2="68"/></g>
  </g>
  <g fill="#d9c060" stroke="#8a6a2e" stroke-width="1"><path d="M52 44 q10 -6 16 4 q-8 8 -16 2 z"/><path d="M96 90 q12 -4 14 8 q-10 6 -16 -2 z"/><path d="M132 46 q12 2 8 14 q-12 2 -12 -8 z"/><path d="M168 92 q10 -8 16 2 q-6 10 -16 4 z"/></g>
  <g fill="#633806" font-family="sans-serif" font-size="12" text-anchor="middle"><text x="120" y="132">verrutschte, verkrümmte OFFENE Larven</text></g>
</svg>
