<svg xmlns="http://www.w3.org/2000/svg" viewBox="0 0 240 160">
  <g stroke="#633806" stroke-width="1.5" fill="#FBF6E9">
    <rect x="8" y="14" width="110" height="104" rx="4"/>
    <rect x="124" y="14" width="108" height="104" rx="4"/>
  </g>
  <g stroke="#633806" stroke-width="1" fill="#EBD9A8">
    <rect x="16" y="30" width="12" height="42" rx="2"/><rect x="32" y="30" width="12" height="42" rx="2"/><rect x="48" y="30" width="12" height="42" rx="2"/>
  </g>
  <rect x="72" y="58" width="34" height="30" rx="3" fill="#E8EDF2" stroke="#633806" stroke-width="1.5"/>
  <g stroke="#633806" stroke-width="1"><line x1="78" y1="66" x2="100" y2="66"/><line x1="78" y1="72" x2="100" y2="72"/><line x1="78" y1="78" x2="100" y2="78"/></g>
  <circle cx="89" cy="32" r="13" fill="#FBF6E9" stroke="#633806" stroke-width="1.5"/>
  <line x1="89" y1="32" x2="97" y2="25" stroke="#B32D2D" stroke-width="2"/>
  <circle cx="89" cy="32" r="2" fill="#633806"/>
  <text x="89" y="53" font-family="sans-serif" font-size="10" text-anchor="middle" fill="#633806">55–60 %</text>
  <path d="M18 86 l6 7 l13 -15" fill="none" stroke="#3B6D11" stroke-width="4" stroke-linecap="round" stroke-linejoin="round"/>
  <text x="42" y="92" font-family="sans-serif" font-size="10" text-anchor="start" fill="#3B6D11">−1 bis −2 %</text>
  <rect x="150" y="24" width="34" height="22" rx="3" fill="#E8EDF2" stroke="#633806" stroke-width="1.5"/>
  <path d="M184 36 q14 4 8 24" fill="none" stroke="#633806" stroke-width="2"/>
  <path d="M152 60 h56 l-6 42 h-44 z" fill="#E8B84D" stroke="#633806" stroke-width="1.5"/>
  <rect x="148" y="55" width="64" height="7" rx="2" fill="#c99433" stroke="#633806" stroke-width="1.5"/>
  <circle cx="178" cy="66" r="34" fill="none" stroke="#B32D2D" stroke-width="3"/>
  <line x1="154" y1="90" x2="202" y2="42" stroke="#B32D2D" stroke-width="3"/>
  <g font-family="sans-serif" font-size="11" text-anchor="middle">
    <text x="63" y="136" fill="#3B6D11">Waben entfeuchten</text><text x="178" y="136" fill="#B32D2D">Honig im Eimer: nein</text>
  </g>
  <text x="120" y="153" font-family="sans-serif" font-size="11" text-anchor="middle" fill="#633806">nur vor dem Schleudern möglich</text>
</svg>
