<svg xmlns="http://www.w3.org/2000/svg" viewBox="0 0 240 160">
  <rect x="14" y="14" width="104" height="104" rx="4" fill="#FBF6E9" stroke="#633806" stroke-width="2"/>
  <text x="20" y="31" font-family="sans-serif" font-size="13" text-anchor="start" fill="#633806">Honig</text>
  <g font-family="sans-serif" font-size="9" text-anchor="start" fill="#633806">
    <text x="20" y="50">Imkerei Muster</text><text x="20" y="60">Musterweg 1</text><text x="20" y="72">Schweiz</text><text x="20" y="88">MHD 05.2028</text><text x="20" y="100">L 2607</text>
  </g>
  <text x="20" y="114" font-family="sans-serif" font-size="11" text-anchor="start" fill="#633806">500 g</text>
  <g stroke="#c9a66b" stroke-width="1"><line x1="118" y1="26" x2="124" y2="26"/><line x1="118" y1="50" x2="124" y2="50"/><line x1="118" y1="68" x2="124" y2="68"/><line x1="118" y1="84" x2="124" y2="84"/><line x1="118" y1="96" x2="124" y2="96"/><line x1="118" y1="110" x2="124" y2="110"/></g>
  <g font-family="sans-serif" font-size="9" text-anchor="start" fill="#633806">
    <text x="126" y="29">Sachbezeichnung</text><text x="126" y="53">Produzent + Adresse</text><text x="126" y="71">Produktionsland</text><text x="126" y="87">MHD</text><text x="126" y="99">Warenlos L…</text><text x="126" y="113">Nennfüllmenge</text>
  </g>
  <circle cx="24" cy="136" r="11" fill="none" stroke="#633806" stroke-width="2"/>
  <line x1="32" y1="144" x2="40" y2="152" stroke="#633806" stroke-width="3"/>
  <text x="44" y="140" font-family="sans-serif" font-size="10" text-anchor="start" fill="#633806">Schrift min. 1,2 mm</text>
  <g font-family="sans-serif" text-anchor="start" fill="#B32D2D">
    <text x="148" y="130" font-size="10">ca. 500 g</text><text x="148" y="150" font-size="9">stärkt Immunsystem</text>
  </g>
  <g stroke="#B32D2D" stroke-width="2"><line x1="146" y1="126" x2="194" y2="126"/><line x1="146" y1="147" x2="231" y2="147"/></g>
</svg>
