<svg xmlns="http://www.w3.org/2000/svg" viewBox="0 0 240 160">
  <g font-family="sans-serif" font-size="10" text-anchor="middle"><text x="101" y="16" fill="#633806">Gesetz</text><text x="173" y="16" fill="#3B6D11">Knospe</text></g>
  <g font-family="sans-serif" font-size="9" text-anchor="start" fill="#633806">
    <text x="8" y="30">Wirkstoffe</text><text x="8" y="48">Wachs-Thymol</text><text x="8" y="66">Fütterung</text><text x="8" y="84">Doku</text>
  </g>
  <g fill="#E8A33D" stroke="#633806" stroke-width="1">
    <rect x="68" y="22" width="62" height="10" rx="2"/><rect x="68" y="40" width="66" height="10" rx="2"/><rect x="68" y="58" width="54" height="10" rx="2"/><rect x="68" y="76" width="46" height="10" rx="2"/>
  </g>
  <g fill="#9BB43A" stroke="#3B6D11" stroke-width="1">
    <rect x="140" y="22" width="26" height="10" rx="2"/><rect x="140" y="40" width="4" height="10" rx="1"/><rect x="140" y="58" width="22" height="10" rx="2"/><rect x="140" y="76" width="18" height="10" rx="2"/>
  </g>
  <text x="99" y="49" font-family="sans-serif" font-size="9" text-anchor="middle" fill="#633806">500</text>
  <text x="148" y="49" font-family="sans-serif" font-size="9" text-anchor="start" fill="#3B6D11">5 mg/kg</text>
  <text x="138" y="97" font-family="sans-serif" font-size="9" text-anchor="middle" fill="#8a6a2e">Balken = Spielraum</text>
  <line x1="10" y1="112" x2="140" y2="112" stroke="#633806" stroke-width="2"/>
  <path d="M140 108 v8 l6 -4 z" fill="#633806"/>
  <g fill="#633806"><circle cx="26" cy="112" r="4"/><circle cx="78" cy="112" r="4"/></g>
  <circle cx="132" cy="112" r="5" fill="#3B6D11"/>
  <g font-family="sans-serif" font-size="9" text-anchor="middle" fill="#633806"><text x="28" y="127">Umstellung</text><text x="78" y="127">Jahr 1</text></g>
  <g font-family="sans-serif" font-size="9" text-anchor="middle" fill="#3B6D11"><text x="132" y="127">1. Ernte</text><text x="132" y="139">Jahr 2</text></g>
  <circle cx="196" cy="126" r="22" fill="#EAF3DE" stroke="#3B6D11" stroke-width="1.5" stroke-dasharray="4 3"/>
  <rect x="190" y="122" width="12" height="9" rx="1" fill="#C9A66B" stroke="#633806" stroke-width="1"/>
  <text x="196" y="115" font-family="sans-serif" font-size="9" text-anchor="middle" fill="#3B6D11">3 km</text>
  <text x="196" y="156" font-family="sans-serif" font-size="9" text-anchor="middle" fill="#3B6D11">≥ 50 % Bio/ÖLN</text>
</svg>
