<svg xmlns="http://www.w3.org/2000/svg" viewBox="0 0 240 160">
  <rect x="30" y="40" width="80" height="70" rx="4" fill="#C9A66B" stroke="#633806" stroke-width="2"/>
  <g fill="#E8B84D"><circle cx="46" cy="56" r="3"/><circle cx="60" cy="52" r="3"/><circle cx="74" cy="58" r="3"/><circle cx="90" cy="54" r="3"/><circle cx="52" cy="70" r="3"/><circle cx="68" cy="72" r="3"/><circle cx="84" cy="70" r="3"/><circle cx="58" cy="86" r="3"/><circle cx="76" cy="88" r="3"/><circle cx="92" cy="84" r="3"/><circle cx="44" cy="98" r="3"/><circle cx="66" cy="98" r="3"/><circle cx="88" cy="98" r="3"/></g>
  <rect x="130" y="40" width="80" height="70" rx="4" fill="#C9A66B" stroke="#633806" stroke-width="2"/>
  <g fill="#E8B84D"><circle cx="152" cy="64" r="3"/><circle cx="176" cy="72" r="3"/><circle cx="166" cy="90" r="3"/></g>
  <g fill="#633806" font-family="sans-serif" font-size="12" text-anchor="middle"><text x="70" y="130">stark</text><text x="170" y="130">schwach</text></g>
</svg>
